<svg width="12" height="14" viewBox="0 0 12 14" fill="none" xmlns="http://www.w3.org/2000/svg">
<path d="M9.92857 2.425H8.93214V1.28125C8.93214 1.088 8.78204 0.925 8.58929 0.925H8.41071C8.21796 0.925 8.06786 1.088 8.06786 1.28125V2.425H3.93214V1.28125C3.93214 1.088 3.78204 0.925 3.58929 0.925H3.41071C3.21796 0.925 3.06786 1.088 3.06786 1.28125V2.425H2.07143C1.43486 2.425 0.925 2.96574 0.925 3.625V11.875C0.925 12.5343 1.43486 13.075 2.07143 13.075H9.92857C10.5651 13.075 11.075 12.5343 11.075 11.875V3.625C11.075 2.96574 10.5651 2.425 9.92857 2.425ZM2.07143 3.325H9.92857C10.0807 3.325 10.2107 3.45617 10.2107 3.625V4.675H1.78929V3.625C1.78929 3.45617 1.91934 3.325 2.07143 3.325ZM9.92857 12.175H2.07143C1.91934 12.175 1.78929 12.0438 1.78929 11.875V5.575H10.2107V11.875C10.2107 12.0438 10.0807 12.175 9.92857 12.175Z" fill="#8E8E93" stroke="#8E8E93" stroke-width="0.15"/>
</svg>
